<?xml version="1.0" encoding="UTF-8" standalone="no"?>
<!-- Generator: Adobe Illustrator 19.1.0, SVG Export Plug-In . SVG Version: 6.00 Build 0)  -->

<svg
   xmlns:dc="http://purl.org/dc/elements/1.1/"
   xmlns:cc="http://creativecommons.org/ns#"
   xmlns:rdf="http://www.w3.org/1999/02/22-rdf-syntax-ns#"
   xmlns:svg="http://www.w3.org/2000/svg"
   xmlns="http://www.w3.org/2000/svg"
   xmlns:sodipodi="http://sodipodi.sourceforge.net/DTD/sodipodi-0.dtd"
   xmlns:inkscape="http://www.inkscape.org/namespaces/inkscape"
   version="1.1"
   id="Layer_1"
   x="0px"
   y="0px"
   viewBox="-136 373.9 301.76398 78.911629"
   xml:space="preserve"
   sodipodi:docname="datacite.svg"
   inkscape:version="0.92.1 r15371"
   width="301.76398"
   height="78.911629"><metadata
     id="metadata4598"><rdf:RDF><cc:Work
         rdf:about=""><dc:format>image/svg+xml</dc:format><dc:type
           rdf:resource="http://purl.org/dc/dcmitype/StillImage" /><dc:title></dc:title></cc:Work></rdf:RDF></metadata><defs
     id="defs4596" /><sodipodi:namedview
     pagecolor="#ffffff"
     bordercolor="#666666"
     borderopacity="1"
     objecttolerance="10"
     gridtolerance="10"
     guidetolerance="10"
     inkscape:pageopacity="0"
     inkscape:pageshadow="2"
     inkscape:window-width="1868"
     inkscape:window-height="1171"
     id="namedview4594"
     showgrid="false"
     inkscape:zoom="2.9336709"
     inkscape:cx="119.12284"
     inkscape:cy="68.841518"
     inkscape:window-x="1920"
     inkscape:window-y="0"
     inkscape:window-maximized="1"
     inkscape:current-layer="Layer_1"
     fit-margin-top="0"
     fit-margin-left="0"
     fit-margin-right="0"
     fit-margin-bottom="0" /><style
     type="text/css"
     id="style4560">
	.st0{fill:url(#SVGID_2_);}
	.st1{fill:url(#SVGID_4_);}
	.st2{fill:url(#SVGID_5_);}
	.st3{fill:#444444;}
</style><linearGradient
     id="SVGID_5_"
     gradientUnits="userSpaceOnUse"
     x1="-115.2"
     y1="420.2756"
     x2="-41.833302"
     y2="420.2756"
     gradientTransform="matrix(1,0,0,-1,-15.292053,833.6928)"><stop
       offset="1"
       style="stop-color:#00AEEF"
       id="stop4584" /><stop
       offset="1"
       style="stop-color:#004968"
       id="stop4586" /></linearGradient><rect
     style="color:#000000;clip-rule:nonzero;display:inline;overflow:visible;visibility:visible;opacity:1;isolation:auto;mix-blend-mode:normal;color-interpolation:sRGB;color-interpolation-filters:linearRGB;solid-color:#000000;solid-opacity:1;vector-effect:none;fill:#ccdfe4;fill-opacity:1;fill-rule:evenodd;stroke:none;stroke-width:1;stroke-linecap:butt;stroke-linejoin:miter;stroke-miterlimit:4;stroke-dasharray:none;stroke-dashoffset:0;stroke-opacity:1;color-rendering:auto;image-rendering:auto;shape-rendering:auto;text-rendering:auto;enable-background:accumulate"
     id="rect4726"
     width="301.76398"
     height="78.911621"
     x="-136"
     y="373.89999"
     ry="11.930445" /><rect
     style="color:#000000;clip-rule:nonzero;display:inline;overflow:visible;visibility:visible;opacity:1;isolation:auto;mix-blend-mode:normal;color-interpolation:sRGB;color-interpolation-filters:linearRGB;solid-color:#000000;solid-opacity:1;vector-effect:none;fill:#ffffff;fill-opacity:0;fill-rule:evenodd;stroke:none;stroke-width:0.8818385;stroke-linecap:butt;stroke-linejoin:miter;stroke-miterlimit:4;stroke-dasharray:none;stroke-dashoffset:0;stroke-opacity:1;color-rendering:auto;image-rendering:auto;shape-rendering:auto;text-rendering:auto;enable-background:accumulate"
     id="rect4600"
     width="301.76398"
     height="78.911629"
     x="-136"
     y="373.89999"
     rx="0"
     ry="39.455814" /><g
     id="g4582"
     transform="translate(-15.292053,-7.9771973)"><g
       id="g4570"><g
         id="g4568"><linearGradient
           id="SVGID_2_"
           gradientUnits="userSpaceOnUse"
           x1="-26.200001"
           y1="420.89001"
           x2="78.5"
           y2="420.89001"><stop
             offset="1"
             style="stop-color:#00AEEF"
             id="stop4562" /><stop
             offset="1"
             style="stop-color:#00AEEF"
             id="stop4564" /></linearGradient><path
           id="SVGID_1_"
           class="st0"
           d="M 72.2,428.6 H 65 c -1.8,0 -3.1,0.4 -4.1,1.1 -1,0.7 -1.4,1.8 -1.4,3.2 0,2.8 1.8,4.2 5.5,4.2 1.3,0 2.4,-0.1 3.2,-0.3 0.8,-0.3 1.7,-0.7 2.4,-1.4 0.8,-0.8 1.3,-2.4 1.3,-4.5 v -2.4 h 0.3 z m 0.2,13.4 v -2.7 c -1.1,1.1 -2.2,2 -3.5,2.4 -1.3,0.4 -2.7,0.7 -4.6,0.7 -1.8,0 -3.4,-0.3 -4.8,-0.7 -1.4,-0.4 -2.5,-1.1 -3.4,-2.1 -1.5,-1.7 -2.4,-3.8 -2.4,-6.5 0,-1.7 0.4,-3.2 1.3,-4.5 0.8,-1.3 2,-2.4 3.5,-3.1 1.5,-0.7 3.5,-1.1 5.8,-1.1 h 8 v -2.1 c 0,-2 -0.6,-3.4 -1.5,-4.2 -1,-0.8 -2.7,-1.4 -5.1,-1.4 -1.7,0 -3,0.3 -3.9,0.7 -0.9,0.4 -1.8,1.1 -2.7,2.2 l -3.9,-3.8 c 1.4,-1.7 3,-2.8 4.5,-3.4 1.7,-0.7 3.8,-1 6.3,-1 8.3,0 12.5,3.5 12.5,10.4 V 442 h -6 v 0 z m -23.6,-5.2 h 2.5 v 5.2 h -3.7 c -1.8,0 -3.4,-0.4 -4.5,-1.1 -1.3,-0.8 -2.2,-1.8 -2.8,-3.1 -0.6,-1.3 -1,-2.7 -1,-4.2 V 416.8 H 36 v -4.6 h 3.4 v -9.1 h 6 v 9.1 h 5.9 v 4.6 h -5.9 v 16.3 c 0,2.6 1.1,3.7 3.4,3.7 z M 26.1,428.6 H 19 c -1.8,0 -3.1,0.4 -4.1,1.1 -1,0.7 -1.4,1.8 -1.4,3.2 0,2.8 1.8,4.2 5.5,4.2 1.3,0 2.4,-0.1 3.2,-0.3 0.8,-0.3 1.7,-0.7 2.4,-1.4 0.8,-0.8 1.3,-2.4 1.3,-4.5 v -2.4 h 0.2 z m 0.2,13.4 v -2.7 c -1.1,1.1 -2.2,2 -3.5,2.4 -1.3,0.4 -2.7,0.7 -4.6,0.7 -1.8,0 -3.4,-0.3 -4.8,-0.7 -1.4,-0.4 -2.5,-1.1 -3.4,-2.1 -1.5,-1.7 -2.4,-3.8 -2.4,-6.5 0,-1.7 0.4,-3.2 1.3,-4.5 0.8,-1.3 2,-2.4 3.5,-3.1 1.5,-0.7 3.5,-1.1 5.8,-1.1 h 8 v -2.1 c 0,-2 -0.6,-3.4 -1.5,-4.2 -1,-0.8 -2.7,-1.4 -5.1,-1.4 -1.7,0 -3,0.3 -3.9,0.7 -1,0.4 -1.8,1.1 -2.7,2.2 l -3.9,-3.8 c 1.4,-1.7 3,-2.8 4.5,-3.4 1.7,-0.7 3.8,-1 6.3,-1 8.3,0 12.5,3.5 12.5,10.4 V 442 h -6 v 0 z M -2.4,414.7 c -0.1,-1.3 -0.3,-2.5 -0.6,-3.8 -0.3,-1.1 -0.8,-2.1 -1.5,-3 -1.7,-2 -4.2,-3 -7.2,-3 h -8 v 31 h 7.9 c 3.1,0 5.5,-1 7.2,-2.8 1,-1.1 1.7,-2.7 1.8,-4.5 0.3,-2 0.4,-4.6 0.4,-8.3 0,-2.3 0,-4.2 0,-5.6 z m 6.2,13.8 c -0.1,1.7 -0.6,3.4 -1.3,5.1 -0.6,1.7 -1.5,3.1 -2.8,4.4 -2.7,2.7 -6.3,3.9 -11,3.9 h -14.9 v -42.5 h 14.9 c 4.6,0 8.3,1.3 11,3.9 1.3,1.3 2.2,2.7 2.8,4.2 0.6,1.5 1,3.2 1.3,4.8 0.1,1.7 0.3,3.5 0.3,5.8 v 2.1 2.1 c 0,2.5 0,4.5 -0.3,6.2 z"
           inkscape:connector-curvature="0"
           style="fill:url(#SVGID_2_)" /></g></g><g
       id="g4580"><g
         id="g4578"><linearGradient
           id="SVGID_4_"
           gradientUnits="userSpaceOnUse"
           x1="84.5"
           y1="420.69"
           x2="170.3"
           y2="420.69"><stop
             offset="1"
             style="stop-color:#444444"
             id="stop4572" /><stop
             offset="1"
             style="stop-color:#00AEEF"
             id="stop4574" /></linearGradient><path
           id="SVGID_3_"
           class="st1"
           d="m 167.2,422.7 c -0.1,-0.6 -0.4,-1.4 -0.7,-2.4 -0.6,-1.5 -1.5,-2.7 -3,-3.5 -1.5,-0.8 -2.8,-1.3 -4.5,-1.3 -1.7,0 -3.1,0.4 -4.5,1.3 -1.4,0.9 -2.4,2.1 -3,3.5 -0.4,1 -0.6,1.7 -0.7,2.4 -0.1,0.7 -0.3,1.7 -0.3,3 h 16.9 c -0.1,-1.3 -0.1,-2.4 -0.2,-3 z m -16.7,5.5 c 0,3.7 0.8,6.5 2.4,8.4 1.5,2 3.9,3 6.9,3 1.7,0 3.1,-0.3 4.2,-0.8 1.1,-0.6 2.4,-1.4 3.7,-2.7 l 2.2,1.8 c -1.5,1.5 -3.1,2.7 -4.6,3.4 -1.5,0.7 -3.5,1 -5.8,1 -2.7,0 -4.9,-0.6 -6.7,-1.7 -1.8,-1.1 -3.2,-2.8 -4.1,-4.9 -1,-2.2 -1.4,-4.9 -1.4,-8.1 0,-2.4 0.3,-4.4 0.8,-6.2 0.6,-1.8 1.3,-3.4 2.2,-4.6 1,-1.3 2.2,-2.2 3.7,-3 1.5,-0.8 3.1,-1 4.8,-1 1.8,0 3.4,0.3 4.8,1 1.4,0.6 2.7,1.5 3.7,2.8 1,1.3 1.8,2.7 2.2,4.4 0.6,1.7 0.8,3.7 0.8,5.9 v 1.4 h -19.8 z m -9.6,11.1 h 2.1 v 2.7 h -2.7 c -1.4,0 -2.7,-0.3 -3.8,-1 -1,-0.7 -1.8,-1.5 -2.4,-2.7 -0.6,-1.1 -0.8,-2.4 -0.8,-3.9 v -19 h -3.9 v -2.2 h 3.9 v -9.1 h 3.1 v 9.1 h 6.5 v 2.2 h -6.5 v 19 c 0,3.2 1.6,4.9 4.5,4.9 z M 124.1,442 H 121 v -28.8 h 3.1 z m -3.4,-38.8 v -3.8 h 3.8 v 3.8 z m -14.2,1.4 c -2,-1.8 -4.4,-2.7 -7.2,-2.7 -1.5,0 -3,0.3 -4.4,0.8 -1.4,0.5 -2.7,1.4 -3.7,2.4 -0.7,0.7 -1.4,1.5 -1.8,2.4 -0.4,0.9 -0.7,1.8 -1,3.1 -0.3,1.3 -0.4,2.7 -0.4,4.2 0,1.5 -0.1,3.5 -0.1,5.8 0,3.4 0,5.9 0.1,7.7 0.1,1.8 0.4,3.2 0.8,4.5 0.4,1.3 1.1,2.4 2.1,3.2 1.1,1.1 2.2,1.8 3.7,2.4 1.4,0.6 2.8,0.8 4.4,0.8 1.8,0 3.7,-0.4 5.2,-1.1 1.5,-0.7 2.8,-1.8 3.9,-3.4 1.1,-1.4 1.8,-3.1 2.2,-5.1 h 3.1 c -0.4,2.5 -1.4,4.8 -2.7,6.6 -1.3,1.8 -3,3.2 -5.1,4.2 -2,1 -4.2,1.5 -6.7,1.5 -2,0 -3.9,-0.4 -5.8,-1.1 -1.9,-0.7 -3.5,-1.8 -4.8,-3.2 -1.3,-1.3 -2.1,-2.5 -2.7,-3.9 -0.6,-1.4 -0.8,-3 -1,-4.8 -0.1,-1.8 -0.1,-4.6 -0.1,-8.4 0,-3.8 0,-6.6 0.1,-8.4 0.1,-1.8 0.4,-3.4 1,-4.8 0.6,-1.4 1.4,-2.7 2.7,-3.9 1.4,-1.4 3,-2.4 4.8,-3.2 2,-0.7 3.9,-1.1 6,-1.1 2.5,0 4.8,0.6 6.7,1.5 2,1 3.7,2.4 5.1,4.2 1.3,1.8 2.2,4.1 2.7,6.6 h -3.2 c -0.5,-2.9 -1.9,-5.1 -3.9,-6.8 z"
           inkscape:connector-curvature="0"
           style="fill:url(#SVGID_4_)" /></g></g></g><path
     style="fill:url(#SVGID_5_)"
     inkscape:connector-curvature="0"
     class="st2"
     d="m -130.49205,428.0228 c 0.5,0.1 1,0.2 1.6,0.3 26.6,5.3 66.199997,-1.7 71.299997,-14.6 4,-10.4 -18.3,-17.8 -44.399997,-16.9 -0.5,0 -1,0 -1.5,0.1 13.899997,1.4 26.399997,6.9 21.399997,15.5 -5.5,9.4 -28.699997,15.7 -48.399997,15.6"
     id="path4589" /><path
     style="fill:#444444"
     inkscape:connector-curvature="0"
     class="st3"
     d="m -72.292053,427.9228 c -4.6,28 -28.799997,11.3 -34.499997,-8.2 -8.3,-20.2 -0.9,-46.2 19.799997,-31 -17.099997,-7.8 -18.899997,14.9 -11.6,31.1 6.1,13.5 19.3,22.2 25.7,8.3 0.3,-0.1 0.5,-0.1 0.6,-0.2 z"
     id="path4591" /><path
     style="color:#000000;clip-rule:nonzero;display:inline;overflow:visible;visibility:visible;opacity:1;isolation:auto;mix-blend-mode:normal;color-interpolation:sRGB;color-interpolation-filters:linearRGB;solid-color:#000000;solid-opacity:1;vector-effect:none;fill:#ffffff;fill-opacity:0;fill-rule:evenodd;stroke:none;stroke-width:1;stroke-linecap:butt;stroke-linejoin:miter;stroke-miterlimit:4;stroke-dasharray:none;stroke-dashoffset:0;stroke-opacity:1;color-rendering:auto;image-rendering:auto;shape-rendering:auto;text-rendering:auto;enable-background:accumulate"
     id="path4704"
     d="m -73.394069,378.11934 c 5.059188,3.18371 10.567168,5.56417 15.950285,8.13175 7.466671,3.64821 14.910941,7.35071 22.079271,11.56446 1.73862,1.02201 3.47571,2.04954 5.16303,3.1542 1.56677,1.02574 3.06274,2.15577 4.59411,3.23365 3.43187,2.57584 6.97041,5.11118 9.89461,8.28397 1.15547,1.2537 2.35812,2.80726 3.00861,4.4204 0.25347,0.62857 0.32994,1.31474 0.4949,1.97211 0.008,0.59539 0.0912,1.19461 0.0234,1.78619 -0.17952,1.56736 -0.97119,3.07227 -2.0872,4.17189 -1.60416,1.5806 -5.92615,3.57023 -6.74407,4.02309 -2.82979,0.88596 -5.7933,1.22522 -8.73735,0.88034 -0.58707,-0.16117 -1.6182,-0.39143 -1.82056,-1.12658 -0.0566,-0.20545 -0.13071,-0.51254 0.0416,-0.63791 4.08314,-2.97116 3.43459,-2.65207 6.50768,-3.34702 8.21276,-1.18325 16.5843198,-0.64191 24.78382978,0.3975 2.53336002,0.32115 5.05016002,0.76169 7.57524002,1.14253 11.3468602,2.03192 22.5069502,5.16603 33.1879202,9.51394 1.32797,0.54057 2.63139,1.13957 3.94709,1.70936 1.8571,0.92702 3.34957,1.56553 5.01861,2.73986 1.04315,0.73395 2.1377,1.7201 2.22654,3.09187 0.0181,0.27907 -0.0759,0.55413 -0.11391,0.83119 -0.32317,0.55965 -0.49683,1.02156 -1.07696,1.38091 -1.65394,1.02448 -3.33451,2.01 -5.05875,2.91116 -0.83367,0.43571 -2.99846,0.50852 -3.91446,0.58093 -4.99345,-0.10519 -9.69341,-1.88354 -14.32477,-3.57343 -2.14198,-0.88292 -4.30229,-1.7272 -6.3833,-2.74986 -0.75627,-0.37164 -1.83339,-0.89705 -2.49152,-1.48796 -0.23173,-0.20806 -0.39059,-0.48519 -0.58588,-0.72778 -0.0827,-0.23174 -0.22091,-0.45068 -0.24814,-0.69523 -0.0821,-0.73726 0.43552,-1.37186 1.03438,-1.71834 4.8919,-2.83031 3.21694,-2.35755 5.9194,-2.97928 2.62139,-0.3944 5.28359,-0.35368 7.9275,-0.37945 1.48792,0.0155 2.99295,-0.1388 4.45964,0.18458 0.67114,0.14798 0.9724,0.28 1.61024,0.51114 0.94994,0.40533 0.48624,0.20797 1.39105,0.5922 0,0 -4.15035,2.76497 -4.15035,2.76497 v 0 c -0.88279,-0.38504 -0.43016,-0.19382 -1.35842,-0.57236 -0.62294,-0.21015 -0.88909,-0.32301 -1.54282,-0.44798 -1.42891,-0.27318 -2.89209,-0.13409 -4.33581,-0.1744 -2.64542,0.0219 -5.32473,10e-4 -7.92691,0.53588 -2.2209,0.6985 -0.99344,0.38844 2.64916,-1.85387 0.42252,-0.26009 -0.731,0.31612 -1.05695,0.70138 -0.36534,0.43182 -0.22648,0.4765 -0.10774,0.99527 0.15252,0.21306 0.26922,0.45702 0.45756,0.63919 0.60447,0.58467 1.62105,1.12117 2.32659,1.48926 2.02377,1.05585 4.14347,1.90751 6.24723,2.78638 4.62999,1.68878 9.37186,3.40538 14.37544,3.2798 1.07002,-0.11943 1.85315,-0.1616 2.8837,-0.43803 0.34331,-0.0921 1.29434,-0.56457 1.00376,-0.35987 -1.08108,0.76156 -2.24901,1.39285 -3.39841,2.04676 -0.24374,0.13867 0.46988,-0.31024 0.67747,-0.49876 0.19168,-0.17408 0.34234,-0.38856 0.51351,-0.58284 0.0749,-0.22048 0.2042,-0.42948 0.22473,-0.66143 0.10776,-1.21723 -0.95196,-2.21459 -1.80247,-2.88595 -1.56994,-1.23925 -2.91601,-1.87097 -4.70487,-2.86401 -3.60893,-1.71693 -4.68811,-2.30307 -8.61981,-3.8273 -9.02334,-3.49814 -18.4105,-6.02408 -27.9488102,-7.64503 -2.54404,-0.35919 -5.07913002,-0.78882 -7.63213,-1.07757 -8.4408298,-0.95466 -17.1028098,-1.31581 -25.4814898,0.31372 -2.88044,0.93579 -2.17823,0.85735 1.88154,-1.71246 0.0971,-0.0615 -0.26717,0.0885 -0.27878,0.20284 -0.0133,0.13131 0.12592,0.23869 0.22515,0.32571 0.40612,0.35613 0.75681,0.36788 1.28258,0.50747 2.87766,0.31031 5.7823,-0.0434 8.50437,-1.04545 -0.90987,0.57568 -1.79904,1.18545 -2.7296,1.72706 -0.43006,0.2503 0.8495,-0.52637 1.22587,-0.85186 1.13386,-0.98057 2.01257,-2.3894 2.26951,-3.88019 0.0967,-0.56097 0.0437,-1.13764 0.0656,-1.70646 -0.1261,-0.63281 -0.16462,-1.28959 -0.3783,-1.89844 -0.56457,-1.60868 -1.65662,-3.142 -2.74893,-4.41033 -2.77956,-3.22747 -6.22044,-5.80515 -9.55727,-8.40985 -1.50471,-1.08424 -2.97223,-2.22204 -4.51413,-3.25272 -8.59733,-5.74686 -18.016973,-10.19927 -27.351226,-14.58799 -5.599803,-2.4954 -11.295044,-4.81427 -16.675073,-7.76993 0,0 4.234463,-2.68699 4.234463,-2.68699 z"
     inkscape:connector-curvature="0" /><path
     style="color:#000000;clip-rule:nonzero;display:inline;overflow:visible;visibility:visible;opacity:1;isolation:auto;mix-blend-mode:normal;color-interpolation:sRGB;color-interpolation-filters:linearRGB;solid-color:#000000;solid-opacity:1;vector-effect:none;fill:#ffffff;fill-opacity:0;fill-rule:evenodd;stroke:none;stroke-width:1;stroke-linecap:butt;stroke-linejoin:miter;stroke-miterlimit:4;stroke-dasharray:none;stroke-dashoffset:0;stroke-opacity:1;color-rendering:auto;image-rendering:auto;shape-rendering:auto;text-rendering:auto;enable-background:accumulate"
     id="path4706"
     d="m 26.743077,406.65682 c 2.06943,1.51785 4.22744,2.90915 6.31519,4.40177 3.69686,2.7197 7.64097,5.06173 11.59534,7.38038 3.5091,2.07554 7.07473,4.0764 10.79232,5.75892 1.43518,0.64955 3.88149,1.62297 5.36096,2.22161 3.39005,1.40351 6.87325,2.51555 10.40051,3.50645 1.90535,0.4978 3.78438,1.05946 5.72043,1.43687 0.40219,0.073 0.80619,0.13665 1.20656,0.21906 2.75669,0.56739 0.1698,0.11775 3.20566,0.66619 2.24947,0.40637 4.50356,0.71589 6.77212,0.9923 0.88188,0.11111 1.76449,0.21653 2.64564,0.33334 2.86806,0.38018 2.82114,0.41989 5.69881,0.75685 2.77989,0.3255 5.561763,0.54091 8.353783,0.72506 3.06962,0.1488 1.58644,0.0875 4.44935,0.18809 0,0 -3.85579,2.77526 -3.85579,2.77526 v 0 c -2.80783,-0.15193 -1.352,-0.0658 -4.36727,-0.26174 -5.598703,-0.41587 -11.164883,-1.09119 -16.730713,-1.81956 -3.82651,-0.44142 -7.63233,-1.00732 -11.41008,-1.76372 -1.94638,-0.38792 -3.84966,-0.92282 -5.75615,-1.46975 -3.44237,-1.09658 -6.83993,-2.31464 -10.17107,-3.71861 -1.86393,-0.77835 -3.47838,-1.43398 -5.31955,-2.28072 -3.72708,-1.71405 -7.33222,-3.67583 -10.86882,-5.75146 -4.01174,-2.29802 -8.02258,-4.60698 -11.77957,-7.31102 -2.13208,-1.47442 -4.31496,-2.873 -6.49803,-4.27051 0,0 4.24037,-2.71506 4.24037,-2.71506 z"
     inkscape:connector-curvature="0" /></svg>