<?xml version="1.0" encoding="UTF-8" standalone="no"?>
<svg
   xmlns:dc="http://purl.org/dc/elements/1.1/"
   xmlns:cc="http://creativecommons.org/ns#"
   xmlns:rdf="http://www.w3.org/1999/02/22-rdf-syntax-ns#"
   xmlns:svg="http://www.w3.org/2000/svg"
   xmlns="http://www.w3.org/2000/svg"
   width="94.478874mm"
   height="53.445431mm"
   viewBox="0 0 94.478877 53.445431"
   version="1.1"
   id="svg83">
  <defs
     id="defs77" />
  <metadata
     id="metadata80">
    <rdf:RDF>
      <cc:Work
         rdf:about="">
        <dc:format>image/svg+xml</dc:format>
        <dc:type
           rdf:resource="http://purl.org/dc/dcmitype/StillImage" />
        <dc:title></dc:title>
      </cc:Work>
    </rdf:RDF>
  </metadata>
  <g
     transform="translate(-170.90921,68.235925)"
     aria-label="open"
     style="font-style:normal;font-variant:normal;font-weight:normal;font-stretch:normal;font-size:7.76111126px;line-height:6.61458302px;font-family:sans-serif;-inkscape-font-specification:sans-serif;text-align:start;letter-spacing:0px;word-spacing:0px;writing-mode:lr-tb;text-anchor:start;fill:#84ff52;fill-opacity:1;stroke:none;stroke-width:0.26458332px;stroke-linecap:butt;stroke-linejoin:miter;stroke-opacity:1"
     id="text4541" />
  <g
     transform="translate(-170.90921,68.235925)"
     style="display:inline"
     id="layer2">
    <g
       transform="translate(-11.751743,-68.235925)"
       id="g879">
      <path
         d="m 203.78862,4.0819292 0.55276,-3.3165678 c -3.82681,-0.3401608 -8.33394,-0.3401608 -12.62847,-0.3401608 -3.82681,0 -5.99533,1.9559246 -6.46305,5.1874522 l -2.50869,18.1560832 c -0.51024,3.784288 1.40317,6.165413 6.03786,6.165413 3.82681,0 8.12134,0 11.77806,-0.340159 l 0.085,-3.316569 h -11.35286 c -1.87089,0 -2.46617,-0.680321 -2.21105,-2.636246 l 1.02048,-7.568578 h 12.41587 l 0.4252,-3.274047 h -12.37334 l 0.80788,-5.9528145 c 0.25512,-2.0409646 1.02048,-2.7638063 2.84884,-2.7638063 z"
         style="font-style:italic;font-variant:normal;font-weight:500;font-stretch:normal;font-size:42.52009964px;line-height:125%;font-family:'Exo 2';-inkscape-font-specification:'Exo 2, Medium Italic';text-align:start;letter-spacing:0px;word-spacing:0px;writing-mode:lr-tb;text-anchor:start;fill:#ff9955;fill-opacity:1;stroke:none;stroke-width:0.5622493px;stroke-linecap:butt;stroke-linejoin:miter;stroke-opacity:1"
         id="path4549-8" />
      <path
         d="m 228.85621,8.8016602 c 0.89293,-6.7181757 -2.63624,-8.67410031 -8.6741,-8.67410031 -4.29453,0 -6.84573,0.0425201 -10.07726,0.38268089 L 205.9804,29.84911 h 4.16697 l 1.7008,-12.118229 6.25046,0.04252 c 1.82836,0 2.7638,0.722842 3.14649,2.848848 l 1.74332,9.226861 h 4.33705 l -1.87088,-9.184342 c -0.46773,-2.551206 -1.53073,-3.826809 -3.18901,-4.29453 l 0.0425,-0.255121 c 4.16697,-0.510241 5.95281,-3.018927 6.54809,-7.3134568 z m -16.4978,5.3150128 1.44569,-10.2898643 c 1.65828,0 3.78429,-0.04252 6.25045,-0.04252 3.99689,0 5.05989,1.1480428 4.50713,4.9323317 -0.59528,4.1244496 -2.25356,5.3575326 -6.33549,5.4000526 z"
         style="font-style:italic;font-variant:normal;font-weight:500;font-stretch:normal;font-size:42.52009964px;line-height:125%;font-family:'Exo 2';-inkscape-font-specification:'Exo 2, Medium Italic';text-align:start;letter-spacing:0px;word-spacing:0px;writing-mode:lr-tb;text-anchor:start;fill:#ff9955;fill-opacity:1;stroke:none;stroke-width:0.5622493px;stroke-linecap:butt;stroke-linejoin:miter;stroke-opacity:1"
         id="path4551-0" />
      <path
         d="m 236.6839,29.84911 4.12445,-29.33886922 h -4.29453 L 232.38937,29.84911 Z"
         style="font-style:italic;font-variant:normal;font-weight:500;font-stretch:normal;font-size:42.52009964px;line-height:125%;font-family:'Exo 2';-inkscape-font-specification:'Exo 2, Medium Italic';text-align:start;letter-spacing:0px;word-spacing:0px;writing-mode:lr-tb;text-anchor:start;fill:#ff9955;fill-opacity:1;stroke:none;stroke-width:0.5622493px;stroke-linecap:butt;stroke-linejoin:miter;stroke-opacity:1"
         id="path4553-9" />
      <path
         d="M 258.26617,-4.1105143e-7 C 249.76215,-4.1105143e-7 246.31802,3.9118489 244.7873,15.009595 c -1.57324,10.715065 1.19056,15.349756 9.65206,15.349756 3.82681,0 6.16542,-0.255119 8.75914,-0.977961 l -0.2126,-3.274049 c -2.42364,0.340161 -4.67721,0.51024 -8.4615,0.467722 -5.22997,-0.04252 -6.54809,-2.678767 -5.31501,-11.225307 1.2756,-9.3969424 3.57169,-11.5654675 8.97174,-11.5654675 3.31657,0 5.01737,0.08504 7.52605,0.3401608 l 0.68033,-3.23152761 C 264.00638,0.29764029 262.1355,-4.1105143e-7 258.26617,-4.1105143e-7 Z"
         style="font-style:italic;font-variant:normal;font-weight:500;font-stretch:normal;font-size:42.52009964px;line-height:125%;font-family:'Exo 2';-inkscape-font-specification:'Exo 2, Medium Italic';text-align:start;letter-spacing:0px;word-spacing:0px;writing-mode:lr-tb;text-anchor:start;fill:#ff9955;fill-opacity:1;stroke:none;stroke-width:0.5622493px;stroke-linecap:butt;stroke-linejoin:miter;stroke-opacity:1"
         id="path4555-2" />
      <path
         id="path4562-3"
         style="font-style:normal;font-variant:normal;font-weight:600;font-stretch:normal;font-size:22.57777786px;line-height:6.61458302px;font-family:'Montserrat Alternates';-inkscape-font-specification:'Montserrat Alternates Semi-Bold';text-align:start;letter-spacing:0px;word-spacing:0px;writing-mode:lr-tb;text-anchor:start;fill:#84ff52;fill-opacity:1;stroke:none;stroke-width:0.26458332px;stroke-linecap:butt;stroke-linejoin:miter;stroke-opacity:1"
         d="m 226.41464,49.223386 c 3.74791,0 6.43466,-2.573867 6.43466,-6.18631 0,-3.612444 -2.68675,-6.163734 -6.43466,-6.163734 -3.70276,0 -6.41209,2.55129 -6.41209,6.163734 0,3.612443 2.70933,6.18631 6.41209,6.18631 z m 0,-2.41582 c -2.032,0 -3.56729,-1.467557 -3.56729,-3.77049 0,-2.302934 1.53529,-3.77049 3.56729,-3.77049 2.05457,0 3.58986,1.467556 3.58986,3.77049 0,2.302933 -1.53529,3.77049 -3.58986,3.77049 z" />
      <path
         id="path4564-1"
         style="font-style:normal;font-variant:normal;font-weight:600;font-stretch:normal;font-size:22.57777786px;line-height:6.61458302px;font-family:'Montserrat Alternates';-inkscape-font-specification:'Montserrat Alternates Semi-Bold';text-align:start;letter-spacing:0px;word-spacing:0px;writing-mode:lr-tb;text-anchor:start;fill:#84ff52;fill-opacity:1;stroke:none;stroke-width:0.26458332px;stroke-linecap:butt;stroke-linejoin:miter;stroke-opacity:1"
         d="m 242.23108,36.873342 c -1.64818,0 -3.048,0.564444 -3.99627,1.715911 v -1.580444 h -2.68676 v 16.436623 h 2.82223 v -5.847646 c 0.97084,1.106313 2.32551,1.6256 3.8608,1.6256 3.52213,0 6.11857,-2.4384 6.11857,-6.18631 0,-3.725334 -2.59644,-6.163734 -6.11857,-6.163734 z m -0.31609,9.934224 c -2.032,0 -3.58987,-1.467557 -3.58987,-3.77049 0,-2.302934 1.55787,-3.77049 3.58987,-3.77049 2.032,0 3.56729,1.467556 3.56729,3.77049 0,2.302933 -1.53529,3.77049 -3.56729,3.77049 z" />
      <path
         id="path4566-8"
         style="font-style:normal;font-variant:normal;font-weight:600;font-stretch:normal;font-size:22.57777786px;line-height:6.61458302px;font-family:'Montserrat Alternates';-inkscape-font-specification:'Montserrat Alternates Semi-Bold';text-align:start;letter-spacing:0px;word-spacing:0px;writing-mode:lr-tb;text-anchor:start;fill:#84ff52;fill-opacity:1;stroke:none;stroke-width:0.26458332px;stroke-linecap:butt;stroke-linejoin:miter;stroke-opacity:1"
         d="m 256.76093,46.830142 c -1.76106,0 -3.07057,-0.745066 -3.6576,-2.12231 l 9.23432,-1.806223 c -0.0226,-3.770487 -2.73192,-6.028267 -6.096,-6.028267 -3.58987,0 -6.20889,2.573867 -6.20889,6.163734 0,3.589866 2.61902,6.18631 6.66044,6.18631 2.07716,0 3.77049,-0.677333 4.83165,-1.964267 l -1.49014,-1.738487 c -0.88053,0.880534 -1.91911,1.30951 -3.27378,1.30951 z m -0.51928,-7.69902 c 1.69333,0 2.95768,0.99342 3.34151,2.460977 l -6.81849,1.30951 v -0.02257 c 0,-2.302933 1.4224,-3.74791 3.47698,-3.74791 z" />
      <path
         id="path4568-7"
         style="font-style:normal;font-variant:normal;font-weight:600;font-stretch:normal;font-size:22.57777786px;line-height:6.61458302px;font-family:'Montserrat Alternates';-inkscape-font-specification:'Montserrat Alternates Semi-Bold';text-align:start;letter-spacing:0px;word-spacing:0px;writing-mode:lr-tb;text-anchor:start;fill:#84ff52;fill-opacity:1;stroke:none;stroke-width:0.26458332px;stroke-linecap:butt;stroke-linejoin:miter;stroke-opacity:1"
         d="m 271.89015,36.873342 c -1.76106,0 -3.2286,0.587023 -4.1543,1.693334 v -1.557867 h -2.68676 v 12.056534 h 2.82223 v -6.096001 c 0,-2.41582 1.35466,-3.63502 3.36409,-3.63502 1.80621,0 2.86737,1.038577 2.86737,3.183464 v 6.547557 h 2.82223 v -6.908801 c 0,-3.63502 -2.14489,-5.2832 -5.03486,-5.2832 z" />
      <path
         style="fill:none;fill-rule:evenodd;stroke:#fefefe;stroke-width:1.61726284;stroke-linecap:butt;stroke-linejoin:miter;stroke-miterlimit:4;stroke-dasharray:none;stroke-opacity:1"
         d="m 205.99503,33.472166 h 71.1448"
         id="path4543-4" />
    </g>
  </g>
</svg>
