<?xml version="1.0" encoding="UTF-8" standalone="no"?>
<svg
   xmlns:dc="http://purl.org/dc/elements/1.1/"
   xmlns:cc="http://creativecommons.org/ns#"
   xmlns:rdf="http://www.w3.org/1999/02/22-rdf-syntax-ns#"
   xmlns:svg="http://www.w3.org/2000/svg"
   xmlns="http://www.w3.org/2000/svg"
   xmlns:sodipodi="http://sodipodi.sourceforge.net/DTD/sodipodi-0.dtd"
   xmlns:inkscape="http://www.inkscape.org/namespaces/inkscape"
   id="svg83"
   version="1.1"
   viewBox="0 0 259.97862 53.445431"
   height="53.445431mm"
   width="259.97861mm"
   sodipodi:docname="logo1_fontexo_open.svg"
   inkscape:version="0.92.4 (5da689c313, 2019-01-14)">
  <sodipodi:namedview
     pagecolor="#ffffff"
     bordercolor="#666666"
     borderopacity="1"
     objecttolerance="10"
     gridtolerance="10"
     guidetolerance="10"
     inkscape:pageopacity="0"
     inkscape:pageshadow="2"
     inkscape:window-width="1680"
     inkscape:window-height="1013"
     id="namedview40"
     showgrid="false"
     showguides="true"
     inkscape:guide-bbox="true"
     inkscape:measure-start="0,0"
     inkscape:measure-end="0,0"
     inkscape:zoom="0.80670815"
     inkscape:cx="402.48301"
     inkscape:cy="20.073444"
     inkscape:window-x="1920"
     inkscape:window-y="0"
     inkscape:window-maximized="1"
     inkscape:current-layer="layer2"
     inkscape:snap-grids="true"
     inkscape:snap-global="false"
     fit-margin-top="0"
     fit-margin-left="0"
     fit-margin-right="0"
     fit-margin-bottom="0">
    <sodipodi:guide
       position="151.42243,53.12599"
       orientation="0,1"
       id="guide4792"
       inkscape:locked="false" />
    <sodipodi:guide
       position="-47.327503,23.503485"
       orientation="0,1"
       id="guide4794"
       inkscape:locked="false" />
    <sodipodi:guide
       position="-15.415014,3.9357481"
       orientation="0,1"
       id="guide2574"
       inkscape:locked="false" />
  </sodipodi:namedview>
  <defs
     id="defs77" />
  <metadata
     id="metadata80">
    <rdf:RDF>
      <cc:Work
         rdf:about="">
        <dc:format>image/svg+xml</dc:format>
        <dc:type
           rdf:resource="http://purl.org/dc/dcmitype/StillImage" />
        <dc:title></dc:title>
      </cc:Work>
    </rdf:RDF>
  </metadata>
  <g
     id="text4541"
     style="font-style:normal;font-variant:normal;font-weight:normal;font-stretch:normal;font-size:7.76111126px;line-height:6.61458302px;font-family:sans-serif;-inkscape-font-specification:sans-serif;text-align:start;letter-spacing:0px;word-spacing:0px;writing-mode:lr-tb;text-anchor:start;fill:#84ff52;fill-opacity:1;stroke:none;stroke-width:0.26458332px;stroke-linecap:butt;stroke-linejoin:miter;stroke-opacity:1"
     aria-label="open"
     transform="translate(-27.614901)" />
  <g
     inkscape:groupmode="layer"
     id="layer1"
     inkscape:label="base 1"
     transform="translate(-27.614901)" />
  <g
     inkscape:groupmode="layer"
     id="layer2"
     inkscape:label="base"
     style="display:inline;opacity:1"
     transform="translate(-27.614901)">
    <rect
       style="color:#000000;clip-rule:nonzero;display:inline;overflow:visible;visibility:visible;opacity:1;isolation:auto;mix-blend-mode:normal;color-interpolation:sRGB;color-interpolation-filters:linearRGB;solid-color:#000000;solid-opacity:1;vector-effect:none;fill:#ffffff;fill-opacity:0;fill-rule:nonzero;stroke:none;stroke-width:0.29167664;stroke-linecap:butt;stroke-linejoin:miter;stroke-miterlimit:4;stroke-dasharray:none;stroke-dashoffset:0;stroke-opacity:1;color-rendering:auto;image-rendering:auto;shape-rendering:auto;text-rendering:auto;enable-background:accumulate"
       id="rect1105-5"
       width="247.79863"
       height="29.929972"
       x="0"
       y="6.6781435" />
    <g
       id="g945"
       style="">
      <path
         id="path4549-8"
         style="font-style:italic;font-variant:normal;font-weight:500;font-stretch:normal;font-size:42.52009964px;line-height:125%;font-family:'Exo 2';-inkscape-font-specification:'Exo 2, Medium Italic';text-align:start;letter-spacing:0px;word-spacing:0px;writing-mode:lr-tb;text-anchor:start;fill:#ff9955;fill-opacity:1;stroke:none;stroke-width:0.5622493px;stroke-linecap:butt;stroke-linejoin:miter;stroke-opacity:1"
         d="m 48.742571,4.0819292 0.55276,-3.3165678 c -3.82681,-0.3401608 -8.33394,-0.3401608 -12.62847,-0.3401608 -3.82681,0 -5.99533,1.9559246 -6.46305,5.1874522 l -2.50869,18.1560832 c -0.51024,3.784288 1.40317,6.165413 6.03786,6.165413 3.82681,0 8.12134,0 11.77806,-0.340159 l 0.085,-3.316569 h -11.35286 c -1.87089,0 -2.46617,-0.680321 -2.21105,-2.636246 l 1.02048,-7.568578 h 12.41587 l 0.4252,-3.274047 h -12.37334 l 0.80788,-5.9528145 c 0.25512,-2.0409646 1.02048,-2.7638063 2.84884,-2.7638063 z"
         inkscape:connector-curvature="0" />
      <path
         id="path4551-0"
         style="font-style:italic;font-variant:normal;font-weight:500;font-stretch:normal;font-size:42.52009964px;line-height:125%;font-family:'Exo 2';-inkscape-font-specification:'Exo 2, Medium Italic';text-align:start;letter-spacing:0px;word-spacing:0px;writing-mode:lr-tb;text-anchor:start;fill:#ff9955;fill-opacity:1;stroke:none;stroke-width:0.5622493px;stroke-linecap:butt;stroke-linejoin:miter;stroke-opacity:1"
         d="m 73.81011,8.8016602 c 0.892924,-6.7181757 -2.636225,-8.67410031 -8.674052,-8.67410031 -4.294527,0 -6.845727,0.0425201 -10.077257,0.38268089 L 50.934351,29.84911 h 4.16697 l 1.7008,-12.118229 6.25046,0.04252 c 1.82836,0 2.763794,0.722842 3.146481,2.848848 l 1.743311,9.226861 h 4.337026 l -1.870871,-9.184342 c -0.467727,-2.551206 -1.530721,-3.826809 -3.188992,-4.29453 l 0.0425,-0.255121 C 71.428982,15.604876 73.214813,13.09619 73.81009,8.8016602 Z M 57.312361,14.116673 58.758051,3.8268087 c 1.65828,0 3.78429,-0.04252 6.25045,-0.04252 3.996866,0 5.05986,1.1480428 4.507103,4.9323317 -0.595277,4.1244496 -2.253548,5.3575326 -6.335463,5.4000526 z"
         inkscape:connector-curvature="0" />
      <path
         id="path4553-9"
         style="font-style:italic;font-variant:normal;font-weight:500;font-stretch:normal;font-size:42.52009964px;line-height:125%;font-family:'Exo 2';-inkscape-font-specification:'Exo 2, Medium Italic';text-align:start;letter-spacing:0px;word-spacing:0px;writing-mode:lr-tb;text-anchor:start;fill:#ff9955;fill-opacity:1;stroke:none;stroke-width:0.5622493px;stroke-linecap:butt;stroke-linejoin:miter;stroke-opacity:1"
         d="M 81.637755,29.84911 85.762181,0.51024078 H 81.467678 L 77.343249,29.84911 Z"
         inkscape:connector-curvature="0" />
      <path
         id="path4555-2"
         style="font-style:italic;font-variant:normal;font-weight:500;font-stretch:normal;font-size:42.52009964px;line-height:125%;font-family:'Exo 2';-inkscape-font-specification:'Exo 2, Medium Italic';text-align:start;letter-spacing:0px;word-spacing:0px;writing-mode:lr-tb;text-anchor:start;fill:#ff9955;fill-opacity:1;stroke:none;stroke-width:0.5622493px;stroke-linecap:butt;stroke-linejoin:miter;stroke-opacity:1"
         d="M 103.21992,-4.1105143e-7 C 94.71593,-4.1105143e-7 91.271821,3.9118489 89.74111,15.009595 c -1.573231,10.715065 1.190554,15.349756 9.652006,15.349756 3.826804,0 6.165414,-0.255119 8.759134,-0.977961 l -0.2126,-3.274049 c -2.42364,0.340161 -4.67721,0.51024 -8.461497,0.467722 -5.22994,-0.04252 -6.548051,-2.678767 -5.314977,-11.225307 1.275591,-9.3969424 3.571669,-11.5654675 8.971704,-11.5654675 3.31657,0 5.01737,0.08504 7.52605,0.3401608 l 0.68033,-3.23152761 C 108.96013,0.29764029 107.08925,-4.1105143e-7 103.21992,-4.1105143e-7 Z"
         inkscape:connector-curvature="0" />
      <path
         inkscape:connector-curvature="0"
         d="m 71.368555,49.223386 c 3.747889,0 6.434621,-2.573867 6.434621,-6.18631 0,-3.612444 -2.686732,-6.163734 -6.434621,-6.163734 -3.702739,0 -6.412054,2.55129 -6.412054,6.163734 0,3.612443 2.709315,6.18631 6.412054,6.18631 z m 0,-2.41582 c -2.031991,0 -3.567272,-1.467557 -3.567272,-3.77049 0,-2.302934 1.535281,-3.77049 3.567272,-3.77049 2.054558,0 3.589839,1.467556 3.589839,3.77049 0,2.302933 -1.535281,3.77049 -3.589839,3.77049 z"
         style="font-style:normal;font-variant:normal;font-weight:600;font-stretch:normal;font-size:22.57777786px;line-height:6.61458302px;font-family:'Montserrat Alternates';-inkscape-font-specification:'Montserrat Alternates Semi-Bold';text-align:start;letter-spacing:0px;word-spacing:0px;writing-mode:lr-tb;text-anchor:start;fill:#84ff52;fill-opacity:1;stroke:none;stroke-width:0.26458332px;stroke-linecap:butt;stroke-linejoin:miter;stroke-opacity:1"
         id="path4562-3" />
      <path
         inkscape:connector-curvature="0"
         d="m 87.184905,36.873342 c -1.648171,0 -3.047985,0.564444 -3.996249,1.715911 v -1.580444 h -2.686745 v 16.436623 h 2.822215 v -5.847646 c 0.970834,1.106313 2.325498,1.6256 3.860779,1.6256 3.522109,0 6.118534,-2.4384 6.118534,-6.18631 0,-3.725334 -2.596425,-6.163734 -6.118534,-6.163734 z m -0.31609,9.934224 c -2.031988,0 -3.589849,-1.467557 -3.589849,-3.77049 0,-2.302934 1.557861,-3.77049 3.589849,-3.77049 2.031988,0 3.567272,1.467556 3.567272,3.77049 0,2.302933 -1.535284,3.77049 -3.567272,3.77049 z"
         style="font-style:normal;font-variant:normal;font-weight:600;font-stretch:normal;font-size:22.57777786px;line-height:6.61458302px;font-family:'Montserrat Alternates';-inkscape-font-specification:'Montserrat Alternates Semi-Bold';text-align:start;letter-spacing:0px;word-spacing:0px;writing-mode:lr-tb;text-anchor:start;fill:#84ff52;fill-opacity:1;stroke:none;stroke-width:0.26458332px;stroke-linecap:butt;stroke-linejoin:miter;stroke-opacity:1"
         id="path4564-1" />
      <path
         inkscape:connector-curvature="0"
         d="m 101.71468,46.830142 c -1.761057,0 -3.070561,-0.745066 -3.657588,-2.12231 l 9.234308,-1.806223 c -0.0226,-3.770487 -2.73192,-6.028267 -6.096,-6.028267 -3.589855,0 -6.20886,2.573867 -6.20886,6.163734 0,3.589866 2.619005,6.18631 6.66041,6.18631 2.07716,0 3.77049,-0.677333 4.83165,-1.964267 l -1.49014,-1.738487 c -0.88053,0.880534 -1.91911,1.30951 -3.27378,1.30951 z m -0.51928,-7.69902 c 1.69333,0 2.95768,0.99342 3.34151,2.460977 l -6.818475,1.30951 v -0.02257 c 0,-2.302933 1.422391,-3.74791 3.476965,-3.74791 z"
         style="font-style:normal;font-variant:normal;font-weight:600;font-stretch:normal;font-size:22.57777786px;line-height:6.61458302px;font-family:'Montserrat Alternates';-inkscape-font-specification:'Montserrat Alternates Semi-Bold';text-align:start;letter-spacing:0px;word-spacing:0px;writing-mode:lr-tb;text-anchor:start;fill:#84ff52;fill-opacity:1;stroke:none;stroke-width:0.26458332px;stroke-linecap:butt;stroke-linejoin:miter;stroke-opacity:1"
         id="path4566-8" />
      <path
         inkscape:connector-curvature="0"
         d="m 116.8439,36.873342 c -1.76106,0 -3.2286,0.587023 -4.1543,1.693334 v -1.557867 h -2.68676 v 12.056534 h 2.82223 v -6.096001 c 0,-2.41582 1.35466,-3.63502 3.36409,-3.63502 1.80621,0 2.86737,1.038577 2.86737,3.183464 v 6.547557 h 2.82223 v -6.908801 c 0,-3.63502 -2.14489,-5.2832 -5.03486,-5.2832 z"
         style="font-style:normal;font-variant:normal;font-weight:600;font-stretch:normal;font-size:22.57777786px;line-height:6.61458302px;font-family:'Montserrat Alternates';-inkscape-font-specification:'Montserrat Alternates Semi-Bold';text-align:start;letter-spacing:0px;word-spacing:0px;writing-mode:lr-tb;text-anchor:start;fill:#84ff52;fill-opacity:1;stroke:none;stroke-width:0.26458332px;stroke-linecap:butt;stroke-linejoin:miter;stroke-opacity:1"
         id="path4568-7" />
      <path
         id="path4543-4"
         d="M 50.948981,33.472166 H 122.09358"
         style="fill:none;fill-rule:evenodd;stroke:#fefefe;stroke-width:1.61726284;stroke-linecap:butt;stroke-linejoin:miter;stroke-miterlimit:4;stroke-dasharray:none;stroke-opacity:1"
         inkscape:connector-curvature="0" />
    </g>
    <flowRoot
       style="font-style:normal;font-variant:normal;font-weight:normal;font-stretch:normal;font-size:6.35000038px;line-height:5.5562501px;font-family:'Exo 2';-inkscape-font-specification:'Exo 2, ';font-variant-ligatures:normal;font-variant-caps:normal;font-variant-numeric:normal;font-feature-settings:normal;text-align:start;letter-spacing:0px;word-spacing:0px;writing-mode:lr-tb;text-anchor:start;fill:#000000;fill-opacity:1;stroke:none;stroke-width:0.26458335"
       id="flowRoot878"
       xml:space="preserve"><flowRegion
         style="font-style:normal;font-variant:normal;font-weight:normal;font-stretch:normal;font-family:'Exo 2';-inkscape-font-specification:'Exo 2, ';stroke-width:0.26458335"
         id="flowRegion880"><rect
           style="font-style:normal;font-variant:normal;font-weight:normal;font-stretch:normal;font-family:'Exo 2';-inkscape-font-specification:'Exo 2, ';stroke-width:0.07000434"
           y="-53.836605"
           x="120.17104"
           height="75.059517"
           width="127.37373"
           id="rect882" /></flowRegion><flowPara
         id="flowPara884"
         style="stroke-width:0.26458335"></flowPara></flowRoot>    <flowRoot
       style="font-style:normal;font-variant:normal;font-weight:normal;font-stretch:normal;font-size:8.46666718px;line-height:5.5562501px;font-family:serif;-inkscape-font-specification:serif;font-variant-ligatures:normal;font-variant-caps:normal;font-variant-numeric:normal;font-feature-settings:normal;text-align:start;letter-spacing:0px;word-spacing:0px;writing-mode:lr-tb;text-anchor:start;fill:#ececec;fill-opacity:1;stroke:none;stroke-width:0.26458335"
       id="flowRoot886"
       xml:space="preserve"><flowRegion
         style="font-size:8.46666718px;fill:#ececec;stroke-width:0.26458335"
         id="flowRegion888"><rect
           style="font-size:8.46666718px;fill:#ececec;stroke-width:0.07000434"
           y="-54.973869"
           x="164.5244"
           height="62.928688"
           width="93.25576"
           id="rect890" /></flowRegion><flowPara
         id="flowPara892"
         style="stroke-width:0.26458335" /></flowRoot>    <g
       aria-label="Eawag
Research Data
Institutional
Collection                                                 "
       transform="matrix(0.26458334,0,0,0.25126913,-28.523984,34.973506)"
       style="font-style:normal;font-variant:normal;font-weight:normal;font-stretch:normal;font-size:24px;line-height:21px;font-family:serif;-inkscape-font-specification:serif;font-variant-ligatures:normal;font-variant-caps:normal;font-variant-numeric:normal;font-feature-settings:normal;text-align:start;letter-spacing:0px;word-spacing:0px;writing-mode:lr-tb;text-anchor:start;fill:#ccdee3;fill-opacity:1;stroke:none"
       id="flowRoot894">
      <path
         d="m 629.43175,-108.45178 c -1.944,0 -2.7,-0.81 -2.7,-3.132 v -8.316 h 15.282 v -5.184 h -15.282 v -6.534 c 0,-2.322 0.756,-3.132 2.7,-3.132 h 14.58 l 0.324,-5.184 c -4.914,-0.432 -10.962,-0.432 -16.416,-0.432 -4.86,0 -7.938,2.7 -7.992,7.074 v 23.328 c 0.054,4.374 3.078,7.074 7.992,7.074 5.454,0 11.502,0 16.416,-0.432 l -0.324,-5.13 z"
         style="font-style:normal;font-variant:normal;font-weight:600;font-stretch:normal;font-size:54px;line-height:53px;font-family:'Exo 2';-inkscape-font-specification:'Exo 2 Semi-Bold';text-align:start;text-anchor:start;fill:#ccdee3;fill-opacity:1"
         id="path2493"
         inkscape:connector-curvature="0" />
      <path
         d="m 663.52516,-130.21378 c -3.51,0 -9.45,0.594 -13.23,1.296 l 0.648,4.644 c 4.158,-0.324 8.64,-0.54 11.07,-0.54 3.78,0 4.806,0.756 4.86,3.78 v 1.62 h -9.936 c -4.968,0 -7.83,2.43 -7.83,6.642 v 2.7 c 0,4.968 3.51,7.668 8.37,7.668 4.752,0 8.208,-2.538 10.098,-4.59 l 0.702,3.996 h 5.184 v -17.982 c 0,-7.074 -3.402,-9.234 -9.936,-9.234 z m -7.884,19.278 v -1.026 c 0,-1.782 0.648,-2.862 2.808,-2.97 h 8.424 v 4.104 c -2.754,2.268 -5.724,3.132 -7.776,3.132 -2.376,0 -3.456,-0.972 -3.456,-3.24 z"
         style="font-style:normal;font-variant:normal;font-weight:600;font-stretch:normal;font-size:54px;line-height:53px;font-family:'Exo 2';-inkscape-font-specification:'Exo 2 Semi-Bold';text-align:start;text-anchor:start;fill:#ccdee3;fill-opacity:1"
         id="path2495"
         inkscape:connector-curvature="0" />
      <path
         d="m 720.95922,-129.45778 h -6.696 l -4.374,18.198 c -0.324,1.404 -0.486,2.754 -0.702,4.212 h -0.702 c -0.27,-1.458 -0.594,-2.808 -0.81,-4.212 l -3.132,-16.2 c -0.216,-1.242 -1.134,-1.998 -2.376,-1.998 h -5.346 c -1.242,0 -2.106,0.756 -2.322,1.944 l -3.24,16.254 c -0.216,1.404 -0.54,2.808 -0.81,4.212 h -0.702 c -0.108,-1.404 -0.378,-2.808 -0.702,-4.212 l -4.374,-18.198 h -6.696 l 7.02,24.678 c 0.216,1.134 1.188,1.782 2.376,1.782 h 5.454 c 1.242,0 2.268,-0.81 2.484,-2.052 l 3.078,-16.254 0.756,-4.32 h 0.648 c 0.324,1.458 0.432,2.862 0.702,4.32 l 3.186,16.254 c 0.216,1.242 1.188,2.052 2.43,2.052 h 5.562 c 1.134,0 2.052,-0.648 2.322,-1.782 z"
         style="font-style:normal;font-variant:normal;font-weight:600;font-stretch:normal;font-size:54px;line-height:53px;font-family:'Exo 2';-inkscape-font-specification:'Exo 2 Semi-Bold';text-align:start;text-anchor:start;fill:#ccdee3;fill-opacity:1"
         id="path2497"
         inkscape:connector-curvature="0" />
      <path
         d="m 738.51344,-130.21378 c -3.51,0 -9.45,0.594 -13.23,1.296 l 0.648,4.644 c 4.158,-0.324 8.64,-0.54 11.07,-0.54 3.78,0 4.806,0.756 4.86,3.78 v 1.62 h -9.936 c -4.968,0 -7.83,2.43 -7.83,6.642 v 2.7 c 0,4.968 3.51,7.668 8.37,7.668 4.752,0 8.208,-2.538 10.098,-4.59 l 0.702,3.996 h 5.184 v -17.982 c 0,-7.074 -3.402,-9.234 -9.936,-9.234 z m -7.884,19.278 v -1.026 c 0,-1.782 0.648,-2.862 2.808,-2.97 h 8.424 v 4.104 c -2.754,2.268 -5.724,3.132 -7.776,3.132 -2.376,0 -3.456,-0.972 -3.456,-3.24 z"
         style="font-style:normal;font-variant:normal;font-weight:600;font-stretch:normal;font-size:54px;line-height:53px;font-family:'Exo 2';-inkscape-font-specification:'Exo 2 Semi-Bold';text-align:start;text-anchor:start;fill:#ccdee3;fill-opacity:1"
         id="path2499"
         inkscape:connector-curvature="0" />
      <path
         d="m 781.7455,-129.45778 h -8.208 c -1.728,-0.54 -3.996,-0.756 -6.804,-0.756 -9.018,0 -11.988,2.376 -11.988,8.586 0,3.51 1.026,5.778 3.672,7.128 -2.43,1.566 -3.078,5.994 -0.648,8.208 -2.862,1.458 -4.158,2.97 -4.158,5.778 0,6.047995 3.132,8.099995 13.392,8.099995 9.99,0 13.338,-1.944 13.338,-8.477995 0,-4.59 -2.052,-7.02 -7.29,-7.722 l -9.666,-1.35 c -2.106,-0.324 -2.268,-2.214 -1.566,-3.51 1.404,0.216 3.024,0.324 4.86,0.324 9.018,0 11.934,-2.538 11.934,-8.532 0,-1.674 -0.216,-3.024 -0.702,-4.212 l 3.456,-0.378 z m -15.066,11.718 c -4.482,0 -5.94,-1.026 -5.94,-3.942 0,-2.97 1.458,-3.888 5.94,-3.888 4.482,0 5.886,0.918 5.886,3.888 0,2.916 -1.404,3.942 -5.886,3.942 z m 7.344,16.578 c 0,2.969995 -1.35,3.509995 -7.074,3.509995 -5.724,0 -7.02,-0.432 -7.02,-3.563995 0,-1.566 0.756,-2.592 2.106,-3.726 l 7.506,0.918 c 3.564,0.432 4.482,0.594 4.482,2.862 z"
         style="font-style:normal;font-variant:normal;font-weight:600;font-stretch:normal;font-size:54px;line-height:53px;font-family:'Exo 2';-inkscape-font-specification:'Exo 2 Semi-Bold';text-align:start;text-anchor:start;fill:#ccdee3;fill-opacity:1"
         id="path2501"
         inkscape:connector-curvature="0" />
      <path
         d="m 644.76775,-61.661785 c -0.81,-3.564 -3.132,-5.076 -4.968,-5.508 v -0.27 c 5.13,-0.648 6.966,-3.834 6.966,-9.396 0,-8.478 -3.78,-10.908 -12.96,-10.908 -6.372,0 -9.288,0.054 -13.554,0.486 v 37.26 h 6.696 v -14.904 h 6.696 c 2.268,0 3.564,0.918 4.32,3.348 l 2.97,11.556 h 7.182 z m -11.124,-8.802 h -6.696 v -11.718 h 6.696 c 4.752,0 6.264,1.188 6.264,5.778 0,4.59 -1.512,5.886 -6.264,5.94 z"
         style="font-style:normal;font-variant:normal;font-weight:600;font-stretch:normal;font-size:54px;line-height:53px;font-family:'Exo 2';-inkscape-font-specification:'Exo 2 Semi-Bold';text-align:start;text-anchor:start;fill:#ccdee3;fill-opacity:1"
         id="path2503"
         inkscape:connector-curvature="0" />
      <path
         d="m 666.26228,-54.695785 c -4.536,0 -6.534,-0.972 -7.074,-5.778 h 10.8 c 4.914,0 7.074,-2.808 7.074,-7.56 0,-5.994 -3.456,-9.18 -12.042,-9.18 -8.964,0 -12.798,3.456 -12.798,13.932 0,10.044 3.618,13.932 13.23,13.932 3.348,0 8.1,-0.432 10.908,-1.782 l -0.594,-4.212 c -3.186,0.378 -6.966,0.648 -9.504,0.648 z m -0.972,-17.334 c 4.05,0 5.238,1.08 5.238,3.888 0,1.404 -0.27,3.078 -2.376,3.078 h -9.126 c 0.216,-5.562 1.674,-6.966 6.264,-6.966 z"
         style="font-style:normal;font-variant:normal;font-weight:600;font-stretch:normal;font-size:54px;line-height:53px;font-family:'Exo 2';-inkscape-font-specification:'Exo 2 Semi-Bold';text-align:start;text-anchor:start;fill:#ccdee3;fill-opacity:1"
         id="path2505"
         inkscape:connector-curvature="0" />
      <path
         d="m 692.497,-77.213785 c -7.776,0 -10.8,1.674 -10.8,7.506 0,4.212 1.512,6.426 6.21,7.776 l 6.966,1.89 c 2.484,0.702 3.888,0.864 3.888,2.862 0,2.106 -1.512,2.538 -7.128,2.538 -3.402,0 -6.912,-0.054 -9.018,-0.216 l -0.432,4.59 c 4.806,0.81 9.288,0.864 11.07,0.864 8.262,0 11.826,-1.35 11.826,-7.83 0,-4.644 -1.944,-6.372 -6.318,-7.614 l -7.128,-1.944 c -2.484,-0.702 -3.618,-0.756 -3.618,-2.862 0,-2.214 1.188,-2.268 5.616,-2.268 3.348,0 6.75,0.108 10.098,0.216 l 0.486,-4.536 c -3.24,-0.54 -8.1,-0.918 -11.718,-0.972 z"
         style="font-style:normal;font-variant:normal;font-weight:600;font-stretch:normal;font-size:54px;line-height:53px;font-family:'Exo 2';-inkscape-font-specification:'Exo 2 Semi-Bold';text-align:start;text-anchor:start;fill:#ccdee3;fill-opacity:1"
         id="path2507"
         inkscape:connector-curvature="0" />
      <path
         d="m 723.84822,-54.695785 c -4.536,0 -6.534,-0.972 -7.074,-5.778 h 10.8 c 4.914,0 7.074,-2.808 7.074,-7.56 0,-5.994 -3.456,-9.18 -12.042,-9.18 -8.964,0 -12.798,3.456 -12.798,13.932 0,10.044 3.618,13.932 13.23,13.932 3.348,0 8.1,-0.432 10.908,-1.782 l -0.594,-4.212 c -3.186,0.378 -6.966,0.648 -9.504,0.648 z m -0.972,-17.334 c 4.05,0 5.238,1.08 5.238,3.888 0,1.404 -0.27,3.078 -2.376,3.078 h -9.126 c 0.216,-5.562 1.674,-6.966 6.264,-6.966 z"
         style="font-style:normal;font-variant:normal;font-weight:600;font-stretch:normal;font-size:54px;line-height:53px;font-family:'Exo 2';-inkscape-font-specification:'Exo 2 Semi-Bold';text-align:start;text-anchor:start;fill:#ccdee3;fill-opacity:1"
         id="path2509"
         inkscape:connector-curvature="0" />
      <path
         d="m 753.70094,-77.213785 c -3.51,0 -9.45,0.594 -13.23,1.296 l 0.648,4.644 c 4.158,-0.324 8.64,-0.54 11.07,-0.54 3.78,0 4.806,0.756 4.86,3.78 v 1.62 h -9.936 c -4.968,0 -7.83,2.43 -7.83,6.642 v 2.7 c 0,4.968 3.51,7.668 8.37,7.668 4.752,0 8.208,-2.538 10.098,-4.59 l 0.702,3.996 h 5.184 v -17.982 c 0,-7.074 -3.402,-9.234 -9.936,-9.234 z m -7.884,19.278 v -1.026 c 0,-1.782 0.648,-2.862 2.808,-2.97 h 8.424 v 4.104 c -2.754,2.268 -5.724,3.132 -7.776,3.132 -2.376,0 -3.456,-0.972 -3.456,-3.24 z"
         style="font-style:normal;font-variant:normal;font-weight:600;font-stretch:normal;font-size:54px;line-height:53px;font-family:'Exo 2';-inkscape-font-specification:'Exo 2 Semi-Bold';text-align:start;text-anchor:start;fill:#ccdee3;fill-opacity:1"
         id="path2511"
         inkscape:connector-curvature="0" />
      <path
         d="m 787.429,-77.213785 c -3.456,0 -7.29,1.674 -10.908,4.644 l -0.594,-3.888 h -5.13 v 26.46 h 6.588 v -18.738 c 3.78,-1.458 6.21,-2.322 8.748,-2.322 h 1.89 l 0.702,-6.156 z"
         style="font-style:normal;font-variant:normal;font-weight:600;font-stretch:normal;font-size:54px;line-height:53px;font-family:'Exo 2';-inkscape-font-specification:'Exo 2 Semi-Bold';text-align:start;text-anchor:start;fill:#ccdee3;fill-opacity:1"
         id="path2513"
         inkscape:connector-curvature="0" />
      <path
         d="m 804.40103,-77.213785 c -9.45,0 -12.96,3.726 -12.96,13.932 0,10.26 3.456,13.932 12.906,13.932 3.348,0 6.966,-0.486 9.72,-1.62 l -0.594,-4.32 c -2.916,0.432 -6.318,0.54 -7.938,0.54 -5.4,0 -7.236,-1.89 -7.236,-8.532 0,-6.588 1.836,-8.424 7.236,-8.424 1.944,0 4.698,0 7.344,0.108 l 0.756,-4.104 c -2.754,-1.134 -6.642,-1.512 -9.234,-1.512 z"
         style="font-style:normal;font-variant:normal;font-weight:600;font-stretch:normal;font-size:54px;line-height:53px;font-family:'Exo 2';-inkscape-font-specification:'Exo 2 Semi-Bold';text-align:start;text-anchor:start;fill:#ccdee3;fill-opacity:1"
         id="path2515"
         inkscape:connector-curvature="0" />
      <path
         d="m 836.91156,-77.213785 c -3.726,0 -7.452,1.674 -11.178,4.428 0.27,-1.512 0.432,-3.348 0.432,-5.292 l -0.054,-9.72 h -6.588 v 37.8 h 6.588 v -18.468 c 3.672,-2.052 6.048,-3.186 8.694,-3.186 2.106,0 2.808,0.81 2.808,3.78 v 17.874 h 6.588 v -19.872 c 0,-4.752 -2.592,-7.344 -7.29,-7.344 z"
         style="font-style:normal;font-variant:normal;font-weight:600;font-stretch:normal;font-size:54px;line-height:53px;font-family:'Exo 2';-inkscape-font-specification:'Exo 2 Semi-Bold';text-align:start;text-anchor:start;fill:#ccdee3;fill-opacity:1"
         id="path2517"
         inkscape:connector-curvature="0" />
      <path
         d="m 877.71109,-87.743785 c -5.454,0 -9.828,0.216 -13.932,0.486 v 37.26 c 4.104,0.27 8.532,0.486 13.932,0.486 11.178,0 15.228,-4.536 15.228,-19.116 0,-14.58 -4.05,-19.116 -15.228,-19.116 z m 0,32.562 c -2.7,0 -5.076,-0.054 -7.182,-0.108 v -26.784 c 2.16,0 4.428,-0.054 7.182,-0.054 6.156,0 8.1,3.24 8.1,13.5 0,10.26 -1.944,13.446 -8.1,13.446 z"
         style="font-style:normal;font-variant:normal;font-weight:600;font-stretch:normal;font-size:54px;line-height:53px;font-family:'Exo 2';-inkscape-font-specification:'Exo 2 Semi-Bold';text-align:start;text-anchor:start;fill:#ccdee3;fill-opacity:1"
         id="path2519"
         inkscape:connector-curvature="0" />
      <path
         d="m 912.64234,-77.213785 c -3.51,0 -9.45,0.594 -13.23,1.296 l 0.648,4.644 c 4.158,-0.324 8.64,-0.54 11.07,-0.54 3.78,0 4.806,0.756 4.86,3.78 v 1.62 h -9.936 c -4.968,0 -7.83,2.43 -7.83,6.642 v 2.7 c 0,4.968 3.51,7.668 8.37,7.668 4.752,0 8.208,-2.538 10.098,-4.59 l 0.702,3.996 h 5.184 v -17.982 c 0,-7.074 -3.402,-9.234 -9.936,-9.234 z m -7.884,19.278 v -1.026 c 0,-1.782 0.648,-2.862 2.808,-2.97 h 8.424 v 4.104 c -2.754,2.268 -5.724,3.132 -7.776,3.132 -2.376,0 -3.456,-0.972 -3.456,-3.24 z"
         style="font-style:normal;font-variant:normal;font-weight:600;font-stretch:normal;font-size:54px;line-height:53px;font-family:'Exo 2';-inkscape-font-specification:'Exo 2 Semi-Bold';text-align:start;text-anchor:start;fill:#ccdee3;fill-opacity:1"
         id="path2521"
         inkscape:connector-curvature="0" />
      <path
         d="m 946.31641,-71.705785 v -4.752 h -7.776 v -7.614 h -6.534 v 7.614 l -4.752,0.27 v 4.482 h 4.752 l 0.054,14.58 c 0,4.914 2.538,7.722 7.182,7.722 1.62,0 4.968,-0.324 6.804,-0.918 l -0.702,-4.86 h -3.618 c -2.376,0 -3.186,-0.756 -3.186,-3.078 v -13.446 z"
         style="font-style:normal;font-variant:normal;font-weight:600;font-stretch:normal;font-size:54px;line-height:53px;font-family:'Exo 2';-inkscape-font-specification:'Exo 2 Semi-Bold';text-align:start;text-anchor:start;fill:#ccdee3;fill-opacity:1"
         id="path2523"
         inkscape:connector-curvature="0" />
      <path
         d="m 964.4275,-77.213785 c -3.51,0 -9.45,0.594 -13.23,1.296 l 0.648,4.644 c 4.158,-0.324 8.64,-0.54 11.07,-0.54 3.78,0 4.806,0.756 4.86,3.78 v 1.62 h -9.936 c -4.968,0 -7.83,2.43 -7.83,6.642 v 2.7 c 0,4.968 3.51,7.668 8.37,7.668 4.752,0 8.208,-2.538 10.098,-4.59 l 0.702,3.996 h 5.184 v -17.982 c 0,-7.074 -3.402,-9.234 -9.936,-9.234 z m -7.884,19.278 v -1.026 c 0,-1.782 0.648,-2.862 2.808,-2.97 h 8.424 v 4.104 c -2.754,2.268 -5.724,3.132 -7.776,3.132 -2.376,0 -3.456,-0.972 -3.456,-3.24 z"
         style="font-style:normal;font-variant:normal;font-weight:600;font-stretch:normal;font-size:54px;line-height:53px;font-family:'Exo 2';-inkscape-font-specification:'Exo 2 Semi-Bold';text-align:start;text-anchor:start;fill:#ccdee3;fill-opacity:1"
         id="path2525"
         inkscape:connector-curvature="0" />
      <path
         d="m 627.00175,-34.257785 h -6.75 V 3.0022153 h 6.75 z"
         style="font-style:normal;font-variant:normal;font-weight:600;font-stretch:normal;font-size:54px;line-height:53px;font-family:'Exo 2';-inkscape-font-specification:'Exo 2 Semi-Bold';text-align:start;text-anchor:start;fill:#ccdee3;fill-opacity:1"
         id="path2527"
         inkscape:connector-curvature="0" />
      <path
         d="m 652.23578,-24.213785 c -3.888,0 -7.668,1.782 -11.448,4.698 l -0.432,-3.942 h -5.508 V 3.0022153 h 6.588 l -0.054,-18.4140003 c 3.726,-2.052 6.102,-3.24 8.748,-3.24 2.106,0 2.808,0.81 2.808,3.78 V 3.0022153 h 6.588 V -16.869785 c 0,-4.752 -2.592,-7.344 -7.29,-7.344 z"
         style="font-style:normal;font-variant:normal;font-weight:600;font-stretch:normal;font-size:54px;line-height:53px;font-family:'Exo 2';-inkscape-font-specification:'Exo 2 Semi-Bold';text-align:start;text-anchor:start;fill:#ccdee3;fill-opacity:1"
         id="path2529"
         inkscape:connector-curvature="0" />
      <path
         d="m 676.14934,-24.213785 c -7.776,0 -10.8,1.674 -10.8,7.506 0,4.212 1.512,6.426 6.21,7.7760003 l 6.966,1.89 c 2.484,0.702 3.888,0.864 3.888,2.862 0,2.106 -1.512,2.538 -7.128,2.538 -3.402,0 -6.912,-0.054 -9.018,-0.216 l -0.432,4.59 c 4.806,0.81 9.288,0.864 11.07,0.864 8.262,0 11.826,-1.35 11.826,-7.83 0,-4.644 -1.944,-6.3720003 -6.318,-7.6140003 l -7.128,-1.944 c -2.484,-0.702 -3.618,-0.756 -3.618,-2.862 0,-2.214 1.188,-2.268 5.616,-2.268 3.348,0 6.75,0.108 10.098,0.216 l 0.486,-4.536 c -3.24,-0.54 -8.1,-0.918 -11.718,-0.972 z"
         style="font-style:normal;font-variant:normal;font-weight:600;font-stretch:normal;font-size:54px;line-height:53px;font-family:'Exo 2';-inkscape-font-specification:'Exo 2 Semi-Bold';text-align:start;text-anchor:start;fill:#ccdee3;fill-opacity:1"
         id="path2531"
         inkscape:connector-curvature="0" />
      <path
         d="m 711.22656,-18.705785 v -4.752 h -7.776 v -7.614 h -6.534 v 7.614 l -4.752,0.27 v 4.482 h 4.752 l 0.054,14.5800003 c 0,4.91399999 2.538,7.722 7.182,7.722 1.62,0 4.968,-0.324 6.804,-0.918 l -0.702,-4.86 h -3.618 c -2.376,0 -3.186,-0.756 -3.186,-3.078 V -18.705785 Z"
         style="font-style:normal;font-variant:normal;font-weight:600;font-stretch:normal;font-size:54px;line-height:53px;font-family:'Exo 2';-inkscape-font-specification:'Exo 2 Semi-Bold';text-align:start;text-anchor:start;fill:#ccdee3;fill-opacity:1"
         id="path2533"
         inkscape:connector-curvature="0" />
      <path
         d="m 721.23766,-34.959785 h -3.024 c -1.242,0 -1.89,0.702 -1.89,1.89 v 2.97 c 0,1.242 0.648,1.89 1.89,1.89 h 3.024 c 1.296,0 1.89,-0.648 1.89,-1.89 v -2.97 c 0,-1.188 -0.594,-1.89 -1.89,-1.89 z m 1.782,11.502 h -6.534 V 3.0022153 h 6.534 z"
         style="font-style:normal;font-variant:normal;font-weight:600;font-stretch:normal;font-size:54px;line-height:53px;font-family:'Exo 2';-inkscape-font-specification:'Exo 2 Semi-Bold';text-align:start;text-anchor:start;fill:#ccdee3;fill-opacity:1"
         id="path2535"
         inkscape:connector-curvature="0" />
      <path
         d="m 747.19141,-18.705785 v -4.752 h -7.776 v -7.614 h -6.534 v 7.614 l -4.752,0.27 v 4.482 h 4.752 l 0.054,14.5800003 c 0,4.91399999 2.538,7.722 7.182,7.722 1.62,0 4.968,-0.324 6.804,-0.918 l -0.702,-4.86 h -3.618 c -2.376,0 -3.186,-0.756 -3.186,-3.078 V -18.705785 Z"
         style="font-style:normal;font-variant:normal;font-weight:600;font-stretch:normal;font-size:54px;line-height:53px;font-family:'Exo 2';-inkscape-font-specification:'Exo 2 Semi-Bold';text-align:start;text-anchor:start;fill:#ccdee3;fill-opacity:1"
         id="path2537"
         inkscape:connector-curvature="0" />
      <path
         d="m 769.6225,-23.457785 v 18.7380003 c -3.294,1.89 -5.454,2.862 -7.722,2.862 -2.484,0 -3.294,-0.918 -3.24,-3.726 V -23.457785 h -6.588 v 19.8180003 c 0,4.86 2.538,7.344 7.344,7.344 3.78,0 7.29,-1.404 11.07,-4.26600001 l 0.486,3.56400001 h 5.184 V -23.457785 Z"
         style="font-style:normal;font-variant:normal;font-weight:600;font-stretch:normal;font-size:54px;line-height:53px;font-family:'Exo 2';-inkscape-font-specification:'Exo 2 Semi-Bold';text-align:start;text-anchor:start;fill:#ccdee3;fill-opacity:1"
         id="path2539"
         inkscape:connector-curvature="0" />
      <path
         d="m 800.03125,-18.705785 v -4.752 h -7.776 v -7.614 h -6.534 v 7.614 l -4.752,0.27 v 4.482 h 4.752 l 0.054,14.5800003 c 0,4.91399999 2.538,7.722 7.182,7.722 1.62,0 4.968,-0.324 6.804,-0.918 l -0.702,-4.86 h -3.618 c -2.376,0 -3.186,-0.756 -3.186,-3.078 V -18.705785 Z"
         style="font-style:normal;font-variant:normal;font-weight:600;font-stretch:normal;font-size:54px;line-height:53px;font-family:'Exo 2';-inkscape-font-specification:'Exo 2 Semi-Bold';text-align:start;text-anchor:start;fill:#ccdee3;fill-opacity:1"
         id="path2541"
         inkscape:connector-curvature="0" />
      <path
         d="m 810.04234,-34.959785 h -3.024 c -1.242,0 -1.89,0.702 -1.89,1.89 v 2.97 c 0,1.242 0.648,1.89 1.89,1.89 h 3.024 c 1.296,0 1.89,-0.648 1.89,-1.89 v -2.97 c 0,-1.188 -0.594,-1.89 -1.89,-1.89 z m 1.782,11.502 h -6.534 V 3.0022153 h 6.534 z"
         style="font-style:normal;font-variant:normal;font-weight:600;font-stretch:normal;font-size:54px;line-height:53px;font-family:'Exo 2';-inkscape-font-specification:'Exo 2 Semi-Bold';text-align:start;text-anchor:start;fill:#ccdee3;fill-opacity:1"
         id="path2543"
         inkscape:connector-curvature="0" />
      <path
         d="m 831.35209,-24.213785 c -9.558,0 -13.122,3.834 -13.122,13.986 0,10.15200029 3.564,13.9320003 13.122,13.9320003 9.504,0 13.014,-3.78000001 13.014,-13.9320003 0,-10.152 -3.51,-13.986 -13.014,-13.986 z m 0,5.238 c 4.752,0 6.21,1.89 6.21,8.748 0,6.8040003 -1.458,8.6940003 -6.21,8.6940003 -4.86,0 -6.264,-1.89 -6.264,-8.6940003 0,-6.858 1.404,-8.748 6.264,-8.748 z"
         style="font-style:normal;font-variant:normal;font-weight:600;font-stretch:normal;font-size:54px;line-height:53px;font-family:'Exo 2';-inkscape-font-specification:'Exo 2 Semi-Bold';text-align:start;text-anchor:start;fill:#ccdee3;fill-opacity:1"
         id="path2545"
         inkscape:connector-curvature="0" />
      <path
         d="m 867.91937,-24.213785 c -3.88799,0 -7.66799,1.782 -11.448,4.698 l -0.432,-3.942 h -5.50799 V 3.0022153 h 6.58799 l -0.054,-18.4140003 c 3.726,-2.052 6.10199,-3.24 8.74799,-3.24 2.106,0 2.808,0.81 2.808,3.78 V 3.0022153 h 6.58801 V -16.869785 c 0,-4.752 -2.592,-7.344 -7.29001,-7.344 z"
         style="font-style:normal;font-variant:normal;font-weight:600;font-stretch:normal;font-size:54px;line-height:53px;font-family:'Exo 2';-inkscape-font-specification:'Exo 2 Semi-Bold';text-align:start;text-anchor:start;fill:#ccdee3;fill-opacity:1"
         id="path2547"
         inkscape:connector-curvature="0" />
      <path
         d="m 895.45094,-24.213785 c -3.51,0 -9.45,0.594 -13.23,1.296 l 0.648,4.644 c 4.158,-0.324 8.64,-0.54 11.07,-0.54 3.78,0 4.806,0.756 4.86,3.78 v 1.62 h -9.936 c -4.968,0 -7.83,2.43 -7.83,6.6420003 v 2.7 c 0,4.96799999 3.51,7.668 8.37,7.668 4.752,0 8.208,-2.538 10.098,-4.59000001 l 0.702,3.99600001 h 5.184 V -14.979785 c 0,-7.074 -3.402,-9.234 -9.936,-9.234 z m -7.884,19.2780003 v -1.026 c 0,-1.782 0.648,-2.862 2.808,-2.97 h 8.424 v 4.104 c -2.754,2.268 -5.724,3.132 -7.776,3.132 -2.376,0 -3.456,-0.972 -3.456,-3.24 z"
         style="font-style:normal;font-variant:normal;font-weight:600;font-stretch:normal;font-size:54px;line-height:53px;font-family:'Exo 2';-inkscape-font-specification:'Exo 2 Semi-Bold';text-align:start;text-anchor:start;fill:#ccdee3;fill-opacity:1"
         id="path2549"
         inkscape:connector-curvature="0" />
      <path
         d="m 919.189,-34.797785 h -6.588 v 31.1580003 c 0,4.644 2.754,7.236 7.128,7.236 1.512,0 4.428,-0.324 5.616,-0.918 l -0.756,-4.86 h -2.268 c -2.106,0 -3.186,-0.972 -3.186,-3.078 z"
         style="font-style:normal;font-variant:normal;font-weight:600;font-stretch:normal;font-size:54px;line-height:53px;font-family:'Exo 2';-inkscape-font-specification:'Exo 2 Semi-Bold';text-align:start;text-anchor:start;fill:#ccdee3;fill-opacity:1"
         id="path2551"
         inkscape:connector-curvature="0" />
      <path
         d="m 634.12975,18.094215 c -11.178,0 -15.174,5.076 -15.174,19.278 0,14.202 3.996,19.278 15.174,19.278 5.13,0 8.154,-0.378 11.448,-1.404 l -0.594,-5.076 c -3.186,0.432 -6.102,0.54 -10.854,0.54 -6.156,0 -8.046,-3.132 -8.046,-13.338 0,-10.206 1.89,-13.338 8.046,-13.338 4.482,0 6.696,0.108 10.044,0.378 l 0.648,-5.13 c -3.24,-0.864 -5.724,-1.188 -10.692,-1.188 z"
         style="font-style:normal;font-variant:normal;font-weight:600;font-stretch:normal;font-size:54px;line-height:53px;font-family:'Exo 2';-inkscape-font-specification:'Exo 2 Semi-Bold';text-align:start;text-anchor:start;fill:#ccdee3;fill-opacity:1"
         id="path2553"
         inkscape:connector-curvature="0" />
      <path
         d="m 662.9185,28.786215 c -9.558,0 -13.122,3.834 -13.122,13.986 0,10.152 3.564,13.932 13.122,13.932 9.504,0 13.014,-3.78 13.014,-13.932 0,-10.152 -3.51,-13.986 -13.014,-13.986 z m 0,5.238 c 4.752,0 6.21,1.89 6.21,8.748 0,6.804 -1.458,8.694 -6.21,8.694 -4.86,0 -6.264,-1.89 -6.264,-8.694 0,-6.858 1.404,-8.748 6.264,-8.748 z"
         style="font-style:normal;font-variant:normal;font-weight:600;font-stretch:normal;font-size:54px;line-height:53px;font-family:'Exo 2';-inkscape-font-specification:'Exo 2 Semi-Bold';text-align:start;text-anchor:start;fill:#ccdee3;fill-opacity:1"
         id="path2555"
         inkscape:connector-curvature="0" />
      <path
         d="m 688.73978,18.202215 h -6.588 v 31.158 c 0,4.644 2.754,7.236 7.128,7.236 1.512,0 4.428,-0.324 5.616,-0.918 l -0.756,-4.86 h -2.268 c -2.106,0 -3.186,-0.972 -3.186,-3.078 z"
         style="font-style:normal;font-variant:normal;font-weight:600;font-stretch:normal;font-size:54px;line-height:53px;font-family:'Exo 2';-inkscape-font-specification:'Exo 2 Semi-Bold';text-align:start;text-anchor:start;fill:#ccdee3;fill-opacity:1"
         id="path2557"
         inkscape:connector-curvature="0" />
      <path
         d="m 705.72025,18.202215 h -6.588 v 31.158 c 0,4.644 2.754,7.236 7.128,7.236 1.512,0 4.428,-0.324 5.616,-0.918 l -0.756,-4.86 h -2.268 c -2.106,0 -3.186,-0.972 -3.186,-3.078 z"
         style="font-style:normal;font-variant:normal;font-weight:600;font-stretch:normal;font-size:54px;line-height:53px;font-family:'Exo 2';-inkscape-font-specification:'Exo 2 Semi-Bold';text-align:start;text-anchor:start;fill:#ccdee3;fill-opacity:1"
         id="path2559"
         inkscape:connector-curvature="0" />
      <path
         d="m 728.91072,51.304215 c -4.536,0 -6.534,-0.972 -7.074,-5.778 h 10.8 c 4.914,0 7.074,-2.808 7.074,-7.56 0,-5.994 -3.456,-9.18 -12.042,-9.18 -8.964,0 -12.798,3.456 -12.798,13.932 0,10.044 3.618,13.932 13.23,13.932 3.348,0 8.1,-0.432 10.908,-1.782 l -0.594,-4.212 c -3.186,0.378 -6.966,0.648 -9.504,0.648 z m -0.972,-17.334 c 4.05,0 5.238,1.08 5.238,3.888 0,1.404 -0.27,3.078 -2.376,3.078 h -9.126 c 0.216,-5.562 1.674,-6.966 6.264,-6.966 z"
         style="font-style:normal;font-variant:normal;font-weight:600;font-stretch:normal;font-size:54px;line-height:53px;font-family:'Exo 2';-inkscape-font-specification:'Exo 2 Semi-Bold';text-align:start;text-anchor:start;fill:#ccdee3;fill-opacity:1"
         id="path2561"
         inkscape:connector-curvature="0" />
      <path
         d="m 757.46744,28.786215 c -9.45,0 -12.96,3.726 -12.96,13.932 0,10.26 3.456,13.932 12.906,13.932 3.348,0 6.966,-0.486 9.72,-1.62 l -0.594,-4.32 c -2.916,0.432 -6.318,0.54 -7.938,0.54 -5.4,0 -7.236,-1.89 -7.236,-8.532 0,-6.588 1.836,-8.424 7.236,-8.424 1.944,0 4.698,0 7.344,0.108 l 0.756,-4.104 c -2.754,-1.134 -6.642,-1.512 -9.234,-1.512 z"
         style="font-style:normal;font-variant:normal;font-weight:600;font-stretch:normal;font-size:54px;line-height:53px;font-family:'Exo 2';-inkscape-font-specification:'Exo 2 Semi-Bold';text-align:start;text-anchor:start;fill:#ccdee3;fill-opacity:1"
         id="path2563"
         inkscape:connector-curvature="0" />
      <path
         d="m 789.16797,34.294215 v -4.752 h -7.776 v -7.614 h -6.534 v 7.614 l -4.752,0.27 v 4.482 h 4.752 l 0.054,14.58 c 0,4.914 2.538,7.722 7.182,7.722 1.62,0 4.968,-0.324 6.804,-0.918 l -0.702,-4.86 h -3.618 c -2.376,0 -3.186,-0.756 -3.186,-3.078 v -13.446 z"
         style="font-style:normal;font-variant:normal;font-weight:600;font-stretch:normal;font-size:54px;line-height:53px;font-family:'Exo 2';-inkscape-font-specification:'Exo 2 Semi-Bold';text-align:start;text-anchor:start;fill:#ccdee3;fill-opacity:1"
         id="path2565"
         inkscape:connector-curvature="0" />
      <path
         d="m 799.17906,18.040215 h -3.024 c -1.242,0 -1.89,0.702 -1.89,1.89 v 2.97 c 0,1.242 0.648,1.89 1.89,1.89 h 3.024 c 1.296,0 1.89,-0.648 1.89,-1.89 v -2.97 c 0,-1.188 -0.594,-1.89 -1.89,-1.89 z m 1.782,11.502 h -6.534 v 26.46 h 6.534 z"
         style="font-style:normal;font-variant:normal;font-weight:600;font-stretch:normal;font-size:54px;line-height:53px;font-family:'Exo 2';-inkscape-font-specification:'Exo 2 Semi-Bold';text-align:start;text-anchor:start;fill:#ccdee3;fill-opacity:1"
         id="path2567"
         inkscape:connector-curvature="0" />
      <path
         d="m 820.48881,28.786215 c -9.558,0 -13.122,3.834 -13.122,13.986 0,10.152 3.564,13.932 13.122,13.932 9.504,0 13.014,-3.78 13.014,-13.932 0,-10.152 -3.51,-13.986 -13.014,-13.986 z m 0,5.238 c 4.752,0 6.21,1.89 6.21,8.748 0,6.804 -1.458,8.694 -6.21,8.694 -4.86,0 -6.264,-1.89 -6.264,-8.694 0,-6.858 1.404,-8.748 6.264,-8.748 z"
         style="font-style:normal;font-variant:normal;font-weight:600;font-stretch:normal;font-size:54px;line-height:53px;font-family:'Exo 2';-inkscape-font-specification:'Exo 2 Semi-Bold';text-align:start;text-anchor:start;fill:#ccdee3;fill-opacity:1"
         id="path2569"
         inkscape:connector-curvature="0" />
      <path
         d="m 857.05609,28.786215 c -3.888,0 -7.668,1.782 -11.448,4.698 l -0.432,-3.942 h -5.508 v 26.46 h 6.588 l -0.054,-18.414 c 3.726,-2.052 6.102,-3.24 8.748,-3.24 2.106,0 2.808,0.81 2.808,3.78 v 17.874 h 6.588 v -19.872 c 0,-4.752 -2.592,-7.344 -7.29,-7.344 z"
         style="font-style:normal;font-variant:normal;font-weight:600;font-stretch:normal;font-size:54px;line-height:53px;font-family:'Exo 2';-inkscape-font-specification:'Exo 2 Semi-Bold';text-align:start;text-anchor:start;fill:#ccdee3;fill-opacity:1"
         id="path2571"
         inkscape:connector-curvature="0" />
    </g>
    <flowRoot
       xml:space="preserve"
       id="flowRoot2471"
       style="fill:black;fill-opacity:1;stroke:none;font-family:serif;font-style:normal;font-weight:normal;font-size:24px;line-height:21px;letter-spacing:0px;word-spacing:0px;-inkscape-font-specification:serif;font-stretch:normal;font-variant:normal;text-anchor:start;text-align:start;writing-mode:lr;font-variant-ligatures:normal;font-variant-caps:normal;font-variant-numeric:normal;font-feature-settings:normal"><flowRegion
         id="flowRegion2473"><rect
           id="rect2475"
           width="65.699104"
           height="33.469353"
           x="816.90015"
           y="167.28952" /></flowRegion><flowPara
         id="flowPara2477"></flowPara></flowRoot>    <flowRoot
       xml:space="preserve"
       id="flowRoot2479"
       style="fill:black;fill-opacity:1;stroke:none;font-family:serif;font-style:normal;font-weight:normal;font-size:24px;line-height:21px;letter-spacing:0px;word-spacing:0px;-inkscape-font-specification:serif;font-stretch:normal;font-variant:normal;text-anchor:start;text-align:start;writing-mode:lr;font-variant-ligatures:normal;font-variant-caps:normal;font-variant-numeric:normal;font-feature-settings:normal"><flowRegion
         id="flowRegion2481"><rect
           id="rect2483"
           width="60.740677"
           height="30.990143"
           x="806.98328"
           y="143.73701" /></flowRegion><flowPara
         id="flowPara2485"></flowPara></flowRoot>    <text
       xml:space="preserve"
       style="font-style:normal;font-variant:normal;font-weight:normal;font-stretch:normal;font-size:6.35000038px;line-height:5.5562501px;font-family:serif;-inkscape-font-specification:serif;font-variant-ligatures:normal;font-variant-caps:normal;font-variant-numeric:normal;font-feature-settings:normal;text-align:start;letter-spacing:0px;word-spacing:0px;writing-mode:lr-tb;text-anchor:start;fill:#000000;fill-opacity:1;stroke:none;stroke-width:0.26458335"
       x="31.22267"
       y="-52.819771"
       id="text2578"><tspan
         sodipodi:role="line"
         id="tspan2576"
         x="31.22267"
         y="-48.392136"
         style="font-style:normal;font-variant:normal;font-weight:normal;font-stretch:normal;font-size:16.93333435px;font-family:'Montserrat Alternates';-inkscape-font-specification:'Montserrat Alternates';stroke-width:0.26458335" /></text>
  </g>
</svg>
